<svg width="26" height="26" viewBox="0 0 26 26" fill="none" xmlns="http://www.w3.org/2000/svg">
<path opacity="0.5" d="M18.2048 12.7217L25.3071 19.824C25.7332 20.2501 25.9463 20.8183 25.9463 21.3865C25.9463 22.0257 25.7332 22.5938 25.3071 23.02L23.7446 24.5825C23.2474 25.0086 22.6792 25.2217 22.1111 25.2217C21.4719 25.2217 20.9747 25.0086 20.5486 24.5825L13.4463 17.4802L6.34402 24.5825C5.91788 25.0086 5.3497 25.2217 4.78152 25.2217C4.14231 25.2217 3.57413 25.0086 3.14799 24.5825L1.58549 23.02C1.15936 22.5938 0.946289 22.0257 0.946289 21.3865C0.946289 20.8183 1.15936 20.2501 1.58549 19.824L8.68777 12.7217L1.58549 5.61941C1.15936 5.19327 0.946289 4.69611 0.946289 4.05691C0.946289 3.48873 1.15936 2.92054 1.58549 2.42338L3.14799 0.860884C3.57413 0.434748 4.14231 0.22168 4.78152 0.22168C5.3497 0.22168 5.91788 0.434748 6.34402 0.860884L13.4463 7.96316L20.5486 0.860884C20.9747 0.434748 21.4719 0.22168 22.1111 0.22168C22.6792 0.22168 23.2474 0.434748 23.7446 0.860884L25.3071 2.42338C25.7332 2.92054 25.9463 3.48873 25.9463 4.05691C25.9463 4.69611 25.7332 5.19327 25.3071 5.61941L18.2048 12.7217Z" fill="#40BFFF"/>
</svg>
